# 3ds Max Wavefront OBJ Exporter v0.97b - (c)2007 guruware
# File Created: 24.08.2014 18:25:53

mtllib portalModel.mtl

#
# object Plane001
#

v  -0.2154 -37.4790 1.0000
v  2.1579 -52.3369 1.0000
v  5.7916 -47.5218 1.0000
v  6.4661 -36.2752 1.0000
v  2.6337 -66.7824 1.0000
v  7.8463 -52.3369 1.0000
v  12.7530 -37.4790 1.0000
v  -11.3627 -5.1521 1.0000
v  -6.3838 -21.7961 1.0000
v  5.3320 -21.7961 1.0000
v  3.4032 -5.1521 1.0000
v  17.0477 -21.7961 1.0000
v  18.1690 -5.1521 1.0000
v  -4.9936 29.7382 1.0000
v  -10.1677 12.5891 1.0000
v  1.6938 12.5891 1.0000
v  1.3042 28.5943 1.0000
v  13.5553 12.5891 1.0000
v  8.4121 29.7382 1.0000
v  3.3347 40.0303 1.0000
v  1.9649 44.6060 1.0000
v  7.9449 44.6060 1.0000
v  9.8157 58.3331 1.0000
v  5.7916 -47.5218 -0.0000
v  2.1579 -52.3369 -0.0000
v  -0.2154 -37.4790 -0.0000
v  6.4661 -36.2752 -0.0000
v  7.8463 -52.3369 -0.0000
v  2.6337 -66.7824 -0.0000
v  12.7530 -37.4790 -0.0000
v  5.3320 -21.7961 -0.0000
v  -6.3838 -21.7961 -0.0000
v  -11.3627 -5.1521 -0.0000
v  3.4032 -5.1521 -0.0000
v  17.0477 -21.7961 -0.0000
v  18.1690 -5.1521 -0.0000
v  1.6938 12.5891 0.0000
v  -10.1677 12.5891 0.0000
v  -4.9936 29.7382 0.0000
v  1.3042 28.5943 0.0000
v  13.5553 12.5891 0.0000
v  8.4121 29.7382 0.0000
v  3.3347 40.0303 0.0000
v  1.9649 44.6060 0.0000
v  7.9449 44.6060 0.0000
v  9.8157 58.3331 0.0000
# 46 vertices

vn -0.0000 -0.0000 1.0000
vn 0.0000 -0.0000 1.0000
vn -0.0000 0.0000 -1.0000
vn 0.0000 0.0000 -1.0000
vn -0.9954 -0.0955 -0.0000
vn -0.9647 -0.2634 -0.0000
vn -0.9995 -0.0329 -0.0000
vn 0.9452 -0.3265 -0.0000
vn 0.9406 -0.3394 -0.0000
vn 0.9573 -0.2889 -0.0000
vn -0.9452 -0.3266 -0.0000
vn -0.9938 -0.1115 -0.0000
vn 0.9860 -0.1665 -0.0000
vn 0.9956 0.0934 0.0000
vn -0.9838 0.1792 0.0000
vn -0.9340 0.3573 0.0000
vn 0.9630 0.2695 0.0000
vn 0.9870 0.1607 0.0000
vn -0.8876 0.4606 0.0000
vn 0.9986 -0.0520 -0.0000
vn -0.8681 0.4965 0.0000
vn 0.9908 -0.1350 -0.0000
# 22 vertex normals

vt 0.0625 0.2500 0.0000
vt 0.2500 0.1250 0.0000
vt 0.5000 0.1667 0.0000
vt 0.5000 0.2604 0.0000
vt 0.5000 0.0000 0.0000
vt 0.7500 0.1250 0.0000
vt 0.9375 0.2500 0.0000
vt 0.0000 0.5000 0.0000
vt 0.0000 0.3750 0.0000
vt 0.5000 0.3750 0.0000
vt 0.5000 0.5000 0.0000
vt 1.0000 0.3750 0.0000
vt 1.0000 0.5000 0.0000
vt 0.0625 0.7500 0.0000
vt 0.0000 0.6250 0.0000
vt 0.5000 0.6250 0.0000
vt 0.5000 0.7396 0.0000
vt 1.0000 0.6250 0.0000
vt 0.9375 0.7500 0.0000
vt 0.5000 0.8333 0.0000
vt 0.2500 0.8750 0.0000
vt 0.7500 0.8750 0.0000
vt 0.5000 1.0000 0.0000
# 23 texture coords

g Plane001
usemtl wire_225088199
s 2
f 1/1/1 2/2/1 3/3/2 4/4/2 
f 2/2/1 5/5/2 6/6/2 3/3/2 
f 7/7/2 4/4/2 3/3/2 6/6/2 
f 8/8/1 9/9/1 10/10/1 11/11/2 
f 9/9/1 1/1/1 4/4/2 10/10/1 
f 7/7/2 12/12/2 10/10/1 4/4/2 
f 12/12/2 13/13/2 11/11/2 10/10/1 
f 14/14/2 15/15/2 16/16/1 17/17/1 
f 15/15/2 8/8/1 11/11/2 16/16/1 
f 13/13/2 18/18/2 16/16/1 11/11/2 
f 18/18/2 19/19/2 17/17/1 16/16/1 
f 14/14/2 17/17/1 20/20/1 21/21/2 
f 17/17/1 19/19/2 22/22/1 20/20/1 
f 23/23/1 21/21/2 20/20/1 22/22/1 
f 24/3/3 25/2/4 26/1/4 27/4/3 
f 28/6/3 29/5/4 25/2/4 24/3/3 
f 24/3/3 27/4/3 30/7/3 28/6/3 
f 31/10/3 32/9/4 33/8/4 34/11/4 
f 27/4/3 26/1/4 32/9/4 31/10/3 
f 31/10/3 35/12/4 30/7/3 27/4/3 
f 34/11/4 36/13/4 35/12/4 31/10/3 
f 37/16/3 38/15/4 39/14/3 40/17/3 
f 34/11/4 33/8/4 38/15/4 37/16/3 
f 37/16/3 41/18/4 36/13/4 34/11/4 
f 40/17/3 42/19/4 41/18/4 37/16/3 
f 43/20/4 40/17/3 39/14/3 44/21/3 
f 45/22/4 42/19/4 40/17/3 43/20/4 
f 43/20/4 44/21/3 46/23/4 45/22/4 
s 1
f 2/2/5 1/1/6 26/1/6 25/2/5 
f 5/5/7 2/2/5 25/2/5 29/5/7 
s 4
f 6/6/8 5/5/9 29/5/9 28/6/8 
f 7/7/10 6/6/8 28/6/8 30/7/10 
s 1
f 9/9/11 8/8/12 33/8/12 32/9/11 
f 1/1/6 9/9/11 32/9/11 26/1/6 
s 4
f 12/12/13 7/7/10 30/7/10 35/12/13 
f 13/13/14 12/12/13 35/12/13 36/13/14 
s 1
f 15/15/15 14/14/16 39/14/16 38/15/15 
f 8/8/12 15/15/15 38/15/15 33/8/12 
s 4
f 18/18/17 13/13/14 36/13/14 41/18/17 
f 19/19/18 18/18/17 41/18/17 42/19/18 
s 1
f 14/14/16 21/21/19 44/21/19 39/14/16 
s 4
f 22/22/20 19/19/18 42/19/18 45/22/20 
s 1
f 21/21/19 23/23/21 46/23/21 44/21/19 
s 4
f 23/23/22 22/22/20 45/22/20 46/23/22 
# 44 polygons

